<svg version="1.1" id="Layer_1" xmlns="http://www.w3.org/2000/svg" xmlns:xlink="http://www.w3.org/1999/xlink" x="0px" y="0px"
	 width="100%" viewBox="0 0 512 512" enable-background="new 0 0 512 512" xml:space="preserve">
<path fill="#000000" opacity="1.000000" stroke="none" 
	d="
M284.000000,513.000000 
	C189.356308,513.000000 95.212616,513.000000 1.034460,513.000000 
	C1.034460,342.397949 1.034460,171.795883 1.034460,1.096914 
	C171.560379,1.096914 342.120819,1.096914 512.840637,1.096914 
	C512.840637,171.666550 512.840637,342.333252 512.840637,513.000000 
	C436.795868,513.000000 360.647919,513.000000 284.000000,513.000000 
M338.328094,467.845795 
	C360.838470,459.069092 381.830841,447.476105 400.072998,431.650757 
	C467.752808,372.937256 494.523865,299.203613 477.973206,211.020889 
	C468.466278,160.367554 442.957458,117.853424 403.200439,85.145851 
	C335.884186,29.765667 259.414734,14.910683 178.122894,45.930271 
	C90.240021,79.464905 41.463192,146.076614 31.934143,240.058350 
	C27.772373,281.104431 35.767666,320.504486 54.621037,357.114685 
	C89.029190,423.929657 143.345703,465.059387 217.348343,479.267059 
	C258.386749,487.145966 298.533112,482.826111 338.328094,467.845795 
z"/>
<path fill="#FE5B5B" opacity="1.000000" stroke="none" 
	d="
M337.957489,467.959137 
	C298.533112,482.826111 258.386749,487.145966 217.348343,479.267059 
	C143.345703,465.059387 89.029190,423.929657 54.621037,357.114685 
	C35.767666,320.504486 27.772373,281.104431 31.934143,240.058350 
	C41.463192,146.076614 90.240021,79.464905 178.122894,45.930271 
	C259.414734,14.910683 335.884186,29.765667 403.200439,85.145851 
	C442.957458,117.853424 468.466278,160.367554 477.973206,211.020889 
	C494.523865,299.203613 467.752808,372.937256 400.072998,431.650757 
	C381.830841,447.476105 360.838470,459.069092 337.957489,467.959137 
M293.940704,153.440674 
	C281.726166,165.675110 269.511658,177.909546 257.142212,190.299133 
	C255.587585,188.825897 254.372940,187.726303 253.215134,186.569824 
	C239.065933,172.436951 225.077301,158.139130 210.738052,144.201996 
	C197.142639,130.987793 180.863785,127.022522 162.834488,132.801239 
	C130.063812,143.304825 119.434631,184.425797 143.089539,209.449432 
	C157.165512,224.339890 171.970215,238.541336 186.437393,253.062408 
	C187.692673,254.322357 188.873520,255.656448 190.561676,257.461578 
	C189.011917,258.767273 187.659637,259.749512 186.490585,260.915466 
	C172.448593,274.919800 158.353668,288.872467 144.436127,302.999786 
	C132.450577,315.165955 127.903389,329.872986 131.565552,346.530670 
	C135.455765,364.225616 146.495605,376.232758 163.764755,381.488647 
	C181.232010,386.804840 197.177811,382.867462 210.364761,370.132629 
	C224.867996,356.126678 238.943054,341.677399 253.211685,327.428314 
	C254.448044,326.193665 255.736893,325.011566 257.413666,323.411652 
	C259.008087,325.256348 260.127258,326.724152 261.419312,328.019501 
	C275.189087,341.824677 288.914215,355.675629 302.797577,369.365967 
	C315.080200,381.477875 329.868835,386.187531 346.742493,382.410553 
	C364.451416,378.446594 376.363953,367.313721 381.527588,350.036194 
	C386.750305,332.560883 382.750183,316.635712 369.983215,303.467010 
	C356.064545,289.110291 341.756470,275.131226 327.628540,260.977142 
	C326.368103,259.714355 325.183929,258.375458 323.208130,256.263672 
	C324.921967,254.979172 326.542969,254.040161 327.824799,252.761230 
	C342.335236,238.283432 357.097076,224.040939 371.188019,209.163742 
	C388.169891,191.234329 387.733765,163.112671 370.842834,145.246994 
	C353.687042,127.101120 325.725403,125.222183 306.647369,141.123627 
	C302.309143,144.739532 298.495636,148.984955 293.940704,153.440674 
z"/>
<path fill="#010101" opacity="1.000000" stroke="none" 
	d="
M294.190674,153.190643 
	C298.495636,148.984955 302.309143,144.739532 306.647369,141.123627 
	C325.725403,125.222183 353.687042,127.101120 370.842834,145.246994 
	C387.733765,163.112671 388.169891,191.234329 371.188019,209.163742 
	C357.097076,224.040939 342.335236,238.283432 327.824799,252.761230 
	C326.542969,254.040161 324.921967,254.979172 323.208130,256.263672 
	C325.183929,258.375458 326.368103,259.714355 327.628540,260.977142 
	C341.756470,275.131226 356.064545,289.110291 369.983215,303.467010 
	C382.750183,316.635712 386.750305,332.560883 381.527588,350.036194 
	C376.363953,367.313721 364.451416,378.446594 346.742493,382.410553 
	C329.868835,386.187531 315.080200,381.477875 302.797577,369.365967 
	C288.914215,355.675629 275.189087,341.824677 261.419312,328.019501 
	C260.127258,326.724152 259.008087,325.256348 257.413666,323.411652 
	C255.736893,325.011566 254.448044,326.193665 253.211685,327.428314 
	C238.943054,341.677399 224.867996,356.126678 210.364761,370.132629 
	C197.177811,382.867462 181.232010,386.804840 163.764755,381.488647 
	C146.495605,376.232758 135.455765,364.225616 131.565552,346.530670 
	C127.903389,329.872986 132.450577,315.165955 144.436127,302.999786 
	C158.353668,288.872467 172.448593,274.919800 186.490585,260.915466 
	C187.659637,259.749512 189.011917,258.767273 190.561676,257.461578 
	C188.873520,255.656448 187.692673,254.322357 186.437393,253.062408 
	C171.970215,238.541336 157.165512,224.339890 143.089539,209.449432 
	C119.434631,184.425797 130.063812,143.304825 162.834488,132.801239 
	C180.863785,127.022522 197.142639,130.987793 210.738052,144.201996 
	C225.077301,158.139130 239.065933,172.436951 253.215134,186.569824 
	C254.372940,187.726303 255.587585,188.825897 257.142212,190.299133 
	C269.511658,177.909546 281.726166,165.675110 294.190674,153.190643 
M190.623825,299.123657 
	C182.257156,307.489410 173.840973,315.806396 165.542358,324.239105 
	C160.550430,329.311707 158.990921,335.459045 161.348068,342.174805 
	C163.705170,348.890350 168.760574,352.747375 175.831772,353.546844 
	C181.907318,354.233704 186.731918,351.588074 190.953842,347.345490 
	C208.821121,329.390808 226.707474,311.454010 244.744431,293.670502 
	C247.143372,291.305267 250.217438,289.127075 253.378052,288.138092 
	C259.519623,286.216339 264.628418,288.785095 269.076019,293.265350 
	C287.273621,311.596497 305.572113,329.827484 323.842896,348.085907 
	C329.018097,353.257629 335.205322,355.073761 342.137665,352.667023 
	C348.856293,350.334503 352.720520,345.280609 353.531250,338.202271 
	C354.227173,332.126129 351.623962,327.289673 347.378601,323.065094 
	C329.423737,305.197968 311.484344,287.314270 293.697845,269.280243 
	C291.330170,266.879700 289.138641,263.813171 288.146606,260.652954 
	C286.220856,254.518387 288.764618,249.415833 293.256226,244.958847 
	C311.591248,226.765244 329.814728,208.459198 348.066895,190.182190 
	C353.229828,185.012222 355.077240,178.823273 352.685059,171.886566 
	C350.367981,165.167725 345.320770,161.281967 338.247498,160.453125 
	C332.175110,159.741592 327.334625,162.332733 323.106781,166.584656 
	C305.364136,184.428329 287.552338,202.203232 269.750824,219.988251 
	C260.938782,228.792099 253.101517,228.800919 244.331833,220.040146 
	C226.529510,202.255920 208.706879,184.491867 190.962143,166.650345 
	C186.737701,162.402863 181.915939,159.760803 175.844498,160.438919 
	C168.773453,161.228653 163.701859,165.081650 161.346954,171.795258 
	C158.917542,178.721344 160.695847,184.927887 165.863922,190.104004 
	C183.878876,208.146912 201.925552,226.158142 219.942596,244.198959 
	C228.811844,253.079895 228.861801,260.833160 220.104843,269.629333 
	C210.463913,279.313446 200.785751,288.960480 190.623825,299.123657 
z"/>
<path fill="#E4EDEC" opacity="1.000000" stroke="none" 
	d="
M190.873810,298.873657 
	C200.785751,288.960480 210.463913,279.313446 220.104843,269.629333 
	C228.861801,260.833160 228.811844,253.079895 219.942596,244.198959 
	C201.925552,226.158142 183.878876,208.146912 165.863922,190.104004 
	C160.695847,184.927887 158.917542,178.721344 161.346954,171.795258 
	C163.701859,165.081650 168.773453,161.228653 175.844498,160.438919 
	C181.915939,159.760803 186.737701,162.402863 190.962143,166.650345 
	C208.706879,184.491867 226.529510,202.255920 244.331833,220.040146 
	C253.101517,228.800919 260.938782,228.792099 269.750824,219.988251 
	C287.552338,202.203232 305.364136,184.428329 323.106781,166.584656 
	C327.334625,162.332733 332.175110,159.741592 338.247498,160.453125 
	C345.320770,161.281967 350.367981,165.167725 352.685059,171.886566 
	C355.077240,178.823273 353.229828,185.012222 348.066895,190.182190 
	C329.814728,208.459198 311.591248,226.765244 293.256226,244.958847 
	C288.764618,249.415833 286.220856,254.518387 288.146606,260.652954 
	C289.138641,263.813171 291.330170,266.879700 293.697845,269.280243 
	C311.484344,287.314270 329.423737,305.197968 347.378601,323.065094 
	C351.623962,327.289673 354.227173,332.126129 353.531250,338.202271 
	C352.720520,345.280609 348.856293,350.334503 342.137665,352.667023 
	C335.205322,355.073761 329.018097,353.257629 323.842896,348.085907 
	C305.572113,329.827484 287.273621,311.596497 269.076019,293.265350 
	C264.628418,288.785095 259.519623,286.216339 253.378052,288.138092 
	C250.217438,289.127075 247.143372,291.305267 244.744431,293.670502 
	C226.707474,311.454010 208.821121,329.390808 190.953842,347.345490 
	C186.731918,351.588074 181.907318,354.233704 175.831772,353.546844 
	C168.760574,352.747375 163.705170,348.890350 161.348068,342.174805 
	C158.990921,335.459045 160.550430,329.311707 165.542358,324.239105 
	C173.840973,315.806396 182.257156,307.489410 190.873810,298.873657 
z"/>
</svg>